<svg xmlns="http://www.w3.org/2000/svg" version="1.1" xmlns:xlink="http://www.w3.org/1999/xlink" xmlns:svgjs="http://svgjs.dev/svgjs" width="512" height="512"><svg xmlns="http://www.w3.org/2000/svg" xmlns:xlink="http://www.w3.org/1999/xlink" width="512" zoomAndPan="magnify" viewBox="0 0 384 383.999986" height="512" preserveAspectRatio="xMidYMid meet" version="1.0"><defs><g></g></defs><g fill="#18181b" fill-opacity="1"><g transform="translate(10.24086, 257.467847)"><g><path d="M 11.359375 0 L 11.359375 -93.8125 L 32.5 -93.8125 L 32.5 -77.875 L 33.59375 -77.875 C 35.550781 -83.25 38.785156 -87.453125 43.296875 -90.484375 C 47.816406 -93.523438 53.210938 -95.046875 59.484375 -95.046875 C 65.835938 -95.046875 71.203125 -93.503906 75.578125 -90.421875 C 79.960938 -87.347656 83.050781 -83.164062 84.84375 -77.875 L 85.8125 -77.875 C 87.894531 -83.082031 91.410156 -87.242188 96.359375 -90.359375 C 101.304688 -93.484375 107.175781 -95.046875 113.96875 -95.046875 C 122.601562 -95.046875 129.648438 -92.316406 135.109375 -86.859375 C 140.566406 -81.398438 143.296875 -73.4375 143.296875 -62.96875 L 143.296875 0 L 121.125 0 L 121.125 -59.546875 C 121.125 -65.367188 119.578125 -69.632812 116.484375 -72.34375 C 113.390625 -75.050781 109.601562 -76.40625 105.125 -76.40625 C 99.78125 -76.40625 95.613281 -74.742188 92.625 -71.421875 C 89.632812 -68.109375 88.140625 -63.804688 88.140625 -58.515625 L 88.140625 0 L 66.453125 0 L 66.453125 -60.46875 C 66.453125 -65.3125 64.992188 -69.175781 62.078125 -72.0625 C 59.171875 -74.957031 55.378906 -76.40625 50.703125 -76.40625 C 47.523438 -76.40625 44.628906 -75.597656 42.015625 -73.984375 C 39.410156 -72.378906 37.332031 -70.117188 35.78125 -67.203125 C 34.238281 -64.296875 33.46875 -60.910156 33.46875 -57.046875 L 33.46875 0 Z M 11.359375 0 "></path></g></g></g><g fill="#18181b" fill-opacity="1"><g transform="translate(164.646513, 257.467847)"><g><path d="M 11.359375 0 L 11.359375 -93.8125 L 33.46875 -93.8125 L 33.46875 0 Z M 22.484375 -107.140625 C 18.972656 -107.140625 15.957031 -108.304688 13.4375 -110.640625 C 10.914062 -112.984375 9.65625 -115.804688 9.65625 -119.109375 C 9.65625 -122.441406 10.914062 -125.28125 13.4375 -127.625 C 15.957031 -129.96875 18.972656 -131.140625 22.484375 -131.140625 C 26.023438 -131.140625 29.046875 -129.96875 31.546875 -127.625 C 34.046875 -125.28125 35.296875 -122.441406 35.296875 -119.109375 C 35.296875 -115.804688 34.046875 -112.984375 31.546875 -110.640625 C 29.046875 -108.304688 26.023438 -107.140625 22.484375 -107.140625 Z M 22.484375 -107.140625 "></path></g></g></g><g fill="#18181b" fill-opacity="1"><g transform="translate(209.477903, 257.467847)"><g><path d="M 33.46875 -54.96875 L 33.46875 0 L 11.359375 0 L 11.359375 -93.8125 L 32.5 -93.8125 L 32.5 -77.875 L 33.59375 -77.875 C 35.75 -83.125 39.195312 -87.296875 43.9375 -90.390625 C 48.6875 -93.492188 54.5625 -95.046875 61.5625 -95.046875 C 68.039062 -95.046875 73.691406 -93.660156 78.515625 -90.890625 C 83.335938 -88.117188 87.082031 -84.101562 89.75 -78.84375 C 92.414062 -73.59375 93.734375 -67.222656 93.703125 -59.734375 L 93.703125 0 L 71.578125 0 L 71.578125 -56.3125 C 71.578125 -62.582031 69.957031 -67.488281 66.71875 -71.03125 C 63.488281 -74.570312 59.023438 -76.34375 53.328125 -76.34375 C 49.453125 -76.34375 46.019531 -75.5 43.03125 -73.8125 C 40.039062 -72.125 37.695312 -69.691406 36 -66.515625 C 34.3125 -63.335938 33.46875 -59.488281 33.46875 -54.96875 Z M 33.46875 -54.96875 "></path></g></g></g><g fill="#f97316" fill-opacity="1"><g transform="translate(286.606773, 255.027467)"><g><path d="M 50.828125 2.734375 C 43.296875 2.734375 36.832031 0.0820312 31.4375 -5.21875 C 26.050781 -10.519531 23.398438 -16.984375 23.484375 -24.609375 C 23.398438 -32.066406 26.050781 -38.445312 31.4375 -43.75 C 36.832031 -49.050781 43.296875 -51.703125 50.828125 -51.703125 C 58.117188 -51.703125 64.476562 -49.050781 69.90625 -43.75 C 75.332031 -38.445312 78.085938 -32.066406 78.171875 -24.609375 C 78.085938 -19.554688 76.78125 -14.957031 74.25 -10.8125 C 71.726562 -6.664062 68.414062 -3.367188 64.3125 -0.921875 C 60.21875 1.515625 55.722656 2.734375 50.828125 2.734375 Z M 50.828125 2.734375 "></path></g></g></g></svg><style>@media (prefers-color-scheme: light) { :root { filter: none; } }
@media (prefers-color-scheme: dark) { :root { filter: none; } }
</style></svg>